<?xml version="1.0" standalone="no"?>
<!DOCTYPE svg PUBLIC "-//W3C//DTD SVG 20010904//EN"
 "http://www.w3.org/TR/2001/REC-SVG-20010904/DTD/svg10.dtd">
<svg version="1.0" xmlns="http://www.w3.org/2000/svg"
 width="500.000000pt" height="500.000000pt" viewBox="0 0 500.000000 500.000000"
 preserveAspectRatio="xMidYMid meet">

<g transform="translate(0.000000,500.000000) scale(0.100000,-0.100000)"
fill="#000000" stroke="none">
<path d="M1890 3527 c0 -4 4 -15 9 -25 5 -9 25 -51 45 -92 20 -41 81 -160 137
-265 55 -104 112 -214 126 -243 l25 -54 -54 -48 c-62 -55 -101 -121 -124 -210
-37 -144 28 -313 151 -394 51 -34 191 -95 347 -150 95 -34 162 -77 194 -125
26 -40 50 -114 48 -147 -1 -17 3 -20 20 -16 12 3 27 9 34 15 8 6 12 6 12 -2 0
-7 5 -9 10 -6 6 3 10 -2 10 -12 0 -14 2 -15 9 -4 5 7 13 11 19 7 6 -3 13 0 15
6 3 7 6 2 7 -12 l1 -25 14 25 c25 45 38 151 26 216 -24 129 -123 260 -246 325
l-45 24 0 191 c0 153 3 197 16 222 22 45 29 46 57 4 32 -48 47 -96 55 -180 5
-50 11 -67 22 -67 13 0 15 31 18 204 3 221 -3 248 -40 199 -11 -16 -26 -28
-34 -28 -8 0 -14 1 -14 3 0 1 45 94 101 207 103 211 129 249 189 280 58 30 73
53 74 117 l1 58 -172 3 -173 2 0 -46 c0 -60 22 -102 73 -139 34 -25 43 -37 45
-67 3 -37 -6 -58 -146 -335 l-41 -81 -68 23 -68 24 -162 308 -163 308 -180 5
c-99 3 -180 2 -180 -3z m760 -692 c32 -17 36 -26 20 -56 -15 -27 -24 -24 -43
16 -28 58 -24 64 23 40z m-342 -130 c39 -79 42 -91 42 -165 0 -92 -5 -96 -67
-51 -57 42 -87 107 -80 176 6 59 33 125 51 125 6 0 31 -38 54 -85z"/>
<path d="M2047 1933 c-6 -12 5 -295 11 -289 3 3 10 2 17 -4 13 -11 57 -2 49
11 -3 5 0 9 5 9 6 0 11 -4 11 -10 0 -5 7 -10 16 -10 8 0 13 -4 10 -9 -3 -5 0
-11 7 -14 8 -3 14 1 14 9 0 8 -3 14 -7 14 -4 0 -12 11 -18 25 -8 17 -17 23
-29 19 -14 -5 -15 -4 -4 4 11 8 11 15 -3 43 -9 19 -25 73 -34 121 -15 78 -31
107 -45 81z"/>
<path d="M2190 1596 c0 -3 9 -10 20 -16 11 -6 20 -8 20 -6 0 3 -9 10 -20 16
-11 6 -20 8 -20 6z"/>
</g>
</svg>
